<svg xmlns="http://www.w3.org/2000/svg" viewBox="0 0 761 336" width="761" height="336"><title>BTR-Primary-Logo</title><style>		.s0 { fill: #111110 } 	</style><path class="s0" d="m110.2 51.5c-1.5-0.8-1.7-2.8-0.5-3.8 3.5-2.9 6-6.7 7.3-11.2q-9.6 0.6-17.8 1.4-20.9 2-50.4 6.5l-4.5 0.7c-0.4 0.1-0.7-0.3-0.6-0.8 0-0.3 0.2-0.6 0.4-0.7q26.7-7 52.9-11.1 10.2-1.6 21-2.8c0.1-13.3-11.1-20.5-24.9-20.4h-78.1c-1.2 0-2.2 0.9-2.3 2.1l-6.9 79.6c-0.2 1.4 0.9 2.6 2.3 2.6h83.8c14.5 0 27.6-7.9 28.7-22.7 0.8-9.1-3.4-15.8-10.5-19.4zm-20.1 16.3c-0.3 2.9-2.8 5.7-5.7 5.7h-41.6c-1.4 0-2.5-1.2-2.3-2.5l0.5-6.7c0.1-1.2 1.1-2.1 2.3-2.1h42.1c2.8 0 4.9 2.8 4.7 5.6z"></path><path class="s0" d="m137 10.5h97.2l-1.8 21.3h-64.9l-0.9 10.6h64.8l-1.6 19.3h-64.9l-0.9 10.6h64.8l-1.8 21.3h-97.3z"></path><path class="s0" d="m275.6 93.6l4.9-56.7h-38.5l2.3-26.3h109.4l-2.3 26.3h-38.5l-4.9 56.7c0 0-32.4 0-32.4 0z"></path><path class="s0" d="m396.6 93.6l4.9-56.7h-38.5l2.3-26.3h109.4l-2.3 26.3h-38.5l-4.9 56.7c0 0-32.4 0-32.4 0z"></path><path class="s0" d="m485.5 10.5h97.3l-1.9 21.3h-64.9l-0.9 10.6h64.9l-1.7 19.3h-64.9l-0.9 10.6h64.9l-1.9 21.3h-97.2z"></path><path class="s0" d="m96.1 239.5c17.1-0.2 30.4 14.2 28.6 31.4-0.5 6.2-2.7 11.9-6.5 17-3.7 5-8.4 8.8-14.1 11.4l16.1 23.3h-34.5l-13.8-20.3h-29l-1.7 20.3h-32.4l7.2-83.1c0 0 80.1 0 80.1 0zm-49.8 24.3l-1.2 14.1h39.5q2.9 0 5.1-2 2.3-2.1 2.6-5c0.3-4-2.5-7.1-6.5-7.1h-39.5z"></path><path class="s0" d="m155.5 180.5l-2.4 28.4h-32.4l7.2-83.1h32.4l-2.4 28.4h48.6l2.5-28.4h32.4l-7.2 83.1h-32.5l2.5-28.4z"></path><path class="s0" d="m288.4 126h38.5l37.3 83h-36.4l-5.4-14.2h-41.6l-7.8 14.2h-36.4l51.8-83zm3.6 48.5h22.8l-9.2-24.5z"></path><path class="s0" d="m455 125.8h32.4l-7.2 83.1h-36.5l-40.2-50.8-4.4 50.8h-32.4l7.2-83.1h44.6l32.6 44z"></path><path class="s0" d="m140.3 241.5h97.2l-1.9 21.2h-64.8l-0.9 10.7h64.8l-1.7 19.2h-64.8l-0.9 10.6h64.8l-1.9 21.3h-97.2z"></path><path class="s0" d="m284.5 241.5h38.5l37.3 83h-36.4l-5.4-14.2h-41.6l-7.8 14.2h-36.4l51.8-83zm3.6 48.6h22.8l-9.2-24.6z"></path><path class="s0" d="m402.4 241.4l-4.9 56.7h64.8l-2.3 26.3h-97.2l7.3-83h32.4z"></path><path class="s0" d="m510.6 241.4l-7.3 83h-32.4l7.3-83z"></path><path class="s0" d="m551.9 324.6l5-56.8h-38.5l2.3-26.3h109.4l-2.3 26.3h-38.5l-5 56.7c0 0-32.4 0-32.4 0z"></path><path class="s0" d="m692.7 271.3l27-29.8h38.4l-51.3 54.7-2.5 28.4h-32.4l2.5-28.4-41.9-54.7h38.6z"></path><path class="s0" d="m678.1 9.3h-77.8c-1.2 0-2.2 0.9-2.3 2.1l-1.5 17.5q13.5 1.4 25.7 3.3 13 2 24.6 4.6c7 1.5 22.8 5 25.9 5.6 0.3 0.1 0.5 0.4 0.4 0.8v0.7c0 0.4-0.3 0.8-0.6 0.7l-4.4-0.7q-22.4-3.5-38.7-5.3-15.9-1.8-33.5-2.8l-4.7 53.9c-0.1 1.4 0.9 2.5 2.2 2.5h27.8c1.2 0 2.2-0.9 2.3-2.1l1.4-16.1c0.1-1.1 1.1-2 2.3-2h25.5c0.8 0 1.5 0.3 1.9 1l12.5 18.2c0.4 0.6 1.1 1 1.9 1h28.9c1.8 0 2.9-2.1 1.9-3.6l-12.1-17.5c-0.8-1.1-0.4-2.6 0.8-3.3 4.6-2.5 8.6-5.9 11.7-10.2 3.8-5.1 6-10.8 6.5-17 1.8-17.1-11.5-31.5-28.6-31.3z"></path><path class="s0" d="m40.9 209l5-56.7h-38.5l2.3-26.3h109.4l-2.3 26.3h-38.6l-4.9 56.7c0 0-32.4 0-32.4 0z"></path></svg>